<svg width="399px" height="200px" viewBox="0 0 399 200" version="1.1" xmlns="http://www.w3.org/2000/svg" xmlns:xlink="http://www.w3.org/1999/xlink">
  <g stroke="none" stroke-width="1" fill="none" fill-rule="evenodd">
    <g transform="translate(-207.000000, -685.000000)" fill-rule="nonzero">
      <g class="circle-bold-add" transform="translate(534.000000, 749.000000)" fill="#DBDBDB">
        <path d="M36,0 C16.1419355,0 0,16.1419355 0,36 C0,55.8580645 16.1419355,72 36,72 C55.8580645,72 72,55.8580645 72,36 C72,16.1419355 55.8580645,0 36,0 Z M56.9032258,39.483871 C56.9032258,40.1806452 56.4387097,40.6451613 55.7419355,40.6451613 L40.6451613,40.6451613 L40.6451613,55.7419355 C40.6451613,56.4387097 40.1806452,56.9032258 39.483871,56.9032258 L32.516129,56.9032258 C31.8193548,56.9032258 31.3548387,56.4387097 31.3548387,55.7419355 L31.3548387,40.6451613 L16.2580645,40.6451613 C15.5612903,40.6451613 15.0967742,40.1806452 15.0967742,39.483871 L15.0967742,32.516129 C15.0967742,31.8193548 15.5612903,31.3548387 16.2580645,31.3548387 L31.3548387,31.3548387 L31.3548387,16.2580645 C31.3548387,15.5612903 31.8193548,15.0967742 32.516129,15.0967742 L39.483871,15.0967742 C40.1806452,15.0967742 40.6451613,15.5612903 40.6451613,16.2580645 L40.6451613,31.3548387 L55.7419355,31.3548387 C56.4387097,31.3548387 56.9032258,31.8193548 56.9032258,32.516129 L56.9032258,39.483871 Z" id="Shape"></path>
      </g>
      <g class="circle-bold-delete" transform="translate(207.000000, 749.000000)" fill="#DBDBDB">
        <path d="M36,0 C16.2,0 0,16.2 0,36 C0,55.8 16.2,72 36,72 C55.8,72 72,55.8 72,36 C72,16.2 55.8,0 36,0 Z M56.25,38.25 C56.25,39.6 55.35,40.5 54,40.5 L18,40.5 C16.65,40.5 15.75,39.6 15.75,38.25 L15.75,33.75 C15.75,32.4 16.65,31.5 18,31.5 L54,31.5 C55.35,31.5 56.25,32.4 56.25,33.75 L56.25,38.25 Z" id="Shape"></path>
      </g>
      <g class="circle" transform="translate(307.000000, 684.000000)" fill="#04BB5D">
        <g id="Group" transform="translate(101.000000, 101.000000) rotate(-0.001134) translate(-101.000000, -101.000000) translate(1.000000, 1.000000)">
          <path d="M100,200 C44.8593125,200 0,155.139156 0,100 C0,44.8593125 44.8593125,0 100,0 C155.140688,0 200,44.8593125 200,100 C200,155.139156 155.140688,200 100,200 Z M100,18.75 C55.1986562,18.75 18.75,55.1986562 18.75,100 C18.75,144.802844 55.1986562,181.25 100,181.25 C144.801344,181.25 181.25,144.802844 181.25,100 C181.25,55.1986562 144.801344,18.75 100,18.75 Z" id="Shape" opacity="0.4"></path>
          <path d="M200,100 L181.25,100 C181.25,55.1986562 144.801344,18.75 100,18.75 L100,0 C155.140687,0 200,44.8593125 200,100 Z" id="Shape"></path>
        </g>
      </g>
    </g>
  </g>
</svg>
